<svg xmlns="http://www.w3.org/2000/svg" xmlns:xlink="http://www.w3.org/1999/xlink" version="1.1" id="Layer_1" x="0px" y="0px" viewBox="0 0 64.38 85.66" style="enable-background:new 0 0 64.38 85.66;" xml:space="preserve">
  <style type="text/css">
    .st0{fill:#ED8423;}
  </style>
  <g>
    <path class="st0" d="M46.15,53.44c0,2.35-1.94,4.24-4.33,4.22c-2.3-0.01-4.19-1.88-4.2-4.16c-0.02-2.33,1.9-4.23,4.23-4.21   C44.25,49.32,46.15,51.14,46.15,53.44z"/>
    <path class="st0" d="M64.25,36.85c-0.04-2.86-1.34-5.28-3.7-7.09c-2.01-1.54-4.35-1.97-6.8-2.11c-0.01,0-0.01,0-0.01-0.01   c-0.27-0.3-0.17-0.67-0.17-1.02c-0.02-2.14,0.08-4.28-0.05-6.41c-0.33-5.71-4.3-9.11-9.35-9.19c-2.54-0.04-5.09-0.07-7.63-0.08   c-0.01,0-0.02-0.01-0.02-0.02V2.27c0-1.25-1.04-2.27-2.32-2.27h-3.8c-1.28,0-2.32,1.02-2.32,2.27v8.65c0,0.01-0.01,0.02-0.02,0.02   c-1.69,0-3.37,0.01-5.06,0.02c-0.01,0-0.02-0.01-0.02-0.02V2.27c0-1.25-1.04-2.27-2.32-2.27h-3.8c-1.28,0-2.32,1.02-2.32,2.27v8.71   c0,0.01-0.01,0.02-0.02,0.02c-0.81,0-1.62,0.01-2.44,0.01c-1.8,0.01-3.54,0.51-5.13,1.35c-4.61,2.47-6.9,6.33-6.94,11.45   C-0.02,30.34,0,36.87,0.01,43.39c0,6.79-0.03,13.59,0.05,20.38c0.04,3.13,1.17,5.91,3.38,8.23c2.52,2.75,5.7,4.02,9.42,4.05   c0.56,0.01,1.12,0.01,1.68,0.01c0.01,0,0.02,0.01,0.02,0.02v7.31c0,1.25,1.04,2.27,2.32,2.27h3.8c1.28,0,2.32-1.02,2.32-2.27v-7.27   c0-0.01,0.01-0.02,0.02-0.02c1.69,0,3.37,0,5.06,0c0.01,0,0.02,0.01,0.02,0.02v7.27c0,1.25,1.04,2.27,2.32,2.27h3.8   c1.28,0,2.32-1.02,2.32-2.27v-7.27c0-0.01,0.01-0.02,0.02-0.02c6.03,0,12.07,0,18.1-0.02c5.31-0.02,9.56-3.96,9.63-9.06   C64.43,56.96,64.4,46.9,64.25,36.85z M11.14,20.11c1.04-0.44,2.08-0.66,3.23-0.66c9.48,0.01,18.97-0.02,28.45-0.04   c0.27,0,0.55,0,0.82,0.03c0.78,0.07,1.28,0.39,1.28,1.26c-0.01,2.14,0.01,4.27,0.02,6.41c0,0.37-0.19,0.54-0.55,0.56   c-0.45,0.02-0.91,0.05-1.36,0.05c-4.91,0-8.79,0.05-13.69,0.05c0,0-0.01,0-0.01,0c-0.07,0.01-0.95-0.02-1.02,0c0,0-0.01,0-0.01,0   c-5.03,0-10.06,0-15.08,0c-1.74,0-3.2-0.55-4.07-2.15C7.86,23.25,8.62,21.18,11.14,20.11z M55.65,65.54c0,1.73-0.59,2.13-2.59,2.11   c-4.88-0.04-9.75-0.04-14.63-0.04c-8.18,0-16.36,0-24.54,0.02c-1.39,0-2.67-0.12-3.84-0.92c0,0,0,0,0,0L9.81,66.5c0,0,0,0,0,0   c-0.06-0.09-0.12-0.17-0.18-0.25c-0.77-1.06-0.99-2.27-0.98-3.54c0.01-3.5,0-7,0-10.5c0-5.01-0.01-10.01,0-15.02   c0-1.47-0.17-1.34,1.39-1.27c12.44,0.55,24.89,0.18,37.33,0.25c2.18,0.01,4.36,0.02,6.54,0.04c1.44,0.01,1.74,0.28,1.74,1.65   C55.65,47.08,55.66,56.31,55.65,65.54z"/>
    <path class="st0" d="M41.85,49.32c-2.33-0.02-4.24,1.88-4.23,4.21c0.01,2.27,1.9,4.14,4.2,4.16c2.4,0.02,4.34-1.87,4.33-4.22   C46.15,51.16,44.26,49.34,41.85,49.32z"/>
  </g>
</svg>