<?xml version="1.0" encoding="UTF-8"?>
<svg id="Capa_2" data-name="Capa 2" xmlns="http://www.w3.org/2000/svg" viewBox="0 0 66.49 68.73">
  <defs>
    <style>
      .cls-1 {
        fill: #ed8323;
        stroke-width: 0px;
      }
    </style>
  </defs>
  <g id="Capa_1-2" data-name="Capa 1">
    <g>
      <path class="cls-1" d="M66.36,27.3c-.05-3.02-1.38-5.57-3.82-7.48-2.07-1.63-4.5-2.07-7.02-2.22,0,0-.01,0-.01,0-.28-.32-.18-.71-.18-1.07-.02-2.25.08-4.51-.05-6.75C54.93,3.75,50.84.17,45.62.09c-2.63-.04-5.25-.07-7.88-.09L15.04.03s0,.02-.02.02c-.84,0-1.68,0-2.52.01-1.86,0-3.66.53-5.3,1.43C2.44,4.09.07,8.17.03,13.56-.02,20.44,0,27.32,0,34.21c0,7.16-.03,14.33.05,21.49.04,3.3,1.2,6.23,3.49,8.67,2.6,2.89,5.88,4.23,9.73,4.27.58,0,.73.02,1.31.02.01,0,.19,0,.57.02l1.9.04c.39,0,.35,0,1.67,0h1.18c1.32,0,1.34,0,2.29,0h1.45c.12,0,.14,0,.15,0,1.74,0,3.33.01,5.03,0,.06,0,.13,0,.19,0h2.29c.42,0-.04,0,1.28,0h.95c1,0,1,0,2.17,0h1.97s.09,0,.1,0c6.23,0,12.41-.04,18.65-.06,5.49-.02,9.87-4.17,9.95-9.55.15-10.6.13-21.21-.03-31.81ZM11.51,9.67c1.07-.46,2.15-.7,3.33-.7,9.8,0,19.59-.02,29.39-.04.28,0,.56,0,.84.03.81.08,1.32.41,1.32,1.33-.01,2.25.01,4.5.02,6.75,0,.39-.2.57-.57.59-.47.02-.94.06-1.41.06-5.07,0-9.08.06-14.14.06,0,0,0,0,0,0-.07.01-.99-.02-1.05,0,0,0,0,0,0,0-5.19,0-10.39,0-15.58,0-1.8,0-3.31-.58-4.2-2.26-1.33-2.5-.54-4.68,2.07-5.81ZM53.81,59.79c-5.04-.05-10.08-.05-15.11-.05-8.45,0-16.9,0-25.35.02-1.44,0-2.76-.12-3.97-.97,0,0,0,0,0,0l-.24-.23s0,0,0,0c-.07-.09-.12-.18-.19-.27-.8-1.12-1.02-2.39-1.02-3.73,0-3.69,0-7.38,0-11.07,0-5.28-.01-10.56,0-15.83,0-1.55-.18-1.41,1.43-1.34,12.85.58,25.7.19,38.55.26,2.25.01,4.51.02,6.76.04,1.48.01,1.8.3,1.8,1.74.01,9.73.02,19.46.01,29.2,0,1.82-.61,2.25-2.68,2.23Z"/>
      <circle class="cls-1" cx="43.37" cy="45.56" r="4.5"/>
    </g>
  </g>
</svg>